<mxfile host="www.draw.io" modified="2020-03-01T03:06:08.185Z" agent="Mozilla/5.0 (Macintosh; Intel Mac OS X 10_13_4) AppleWebKit/537.36 (KHTML, like Gecko) Chrome/80.0.3987.122 Safari/537.36" etag="FJ9JzYg2tD2hVzG0IGuq" version="12.7.9" type="github">
  <diagram id="LjCUfU67Wd2P0u6V9AHS" name="第 1 页">
    <mxGraphModel dx="1426" dy="777" grid="1" gridSize="10" guides="1" tooltips="1" connect="1" arrows="1" fold="1" page="1" pageScale="1" pageWidth="2339" pageHeight="3300" math="0" shadow="0">
      <root>
        <mxCell id="0" />
        <mxCell id="1" parent="0" />
        <mxCell id="HDh2wChi5G17j3avY4q5-14" style="edgeStyle=orthogonalEdgeStyle;rounded=0;orthogonalLoop=1;jettySize=auto;html=1;exitX=0.5;exitY=1;exitDx=0;exitDy=0;entryX=0.457;entryY=0;entryDx=0;entryDy=0;entryPerimeter=0;curved=1;" parent="1" source="HDh2wChi5G17j3avY4q5-2" target="HDh2wChi5G17j3avY4q5-12" edge="1">
          <mxGeometry relative="1" as="geometry" />
        </mxCell>
        <mxCell id="HDh2wChi5G17j3avY4q5-15" style="edgeStyle=orthogonalEdgeStyle;rounded=0;orthogonalLoop=1;jettySize=auto;html=1;exitX=0.5;exitY=1;exitDx=0;exitDy=0;entryX=0.5;entryY=0;entryDx=0;entryDy=0;curved=1;" parent="1" source="HDh2wChi5G17j3avY4q5-2" target="HDh2wChi5G17j3avY4q5-13" edge="1">
          <mxGeometry relative="1" as="geometry" />
        </mxCell>
        <mxCell id="HDh2wChi5G17j3avY4q5-26" style="edgeStyle=orthogonalEdgeStyle;rounded=0;orthogonalLoop=1;jettySize=auto;html=1;exitX=0;exitY=0.5;exitDx=0;exitDy=0;entryX=0.5;entryY=0;entryDx=0;entryDy=0;" parent="1" source="HDh2wChi5G17j3avY4q5-2" target="HDh2wChi5G17j3avY4q5-25" edge="1">
          <mxGeometry relative="1" as="geometry" />
        </mxCell>
        <mxCell id="HDh2wChi5G17j3avY4q5-2" value="EventLoop" style="ellipse;whiteSpace=wrap;html=1;" parent="1" vertex="1">
          <mxGeometry x="500" y="270" width="120" height="80" as="geometry" />
        </mxCell>
        <mxCell id="HDh2wChi5G17j3avY4q5-9" style="rounded=0;orthogonalLoop=1;jettySize=auto;html=1;exitX=0.5;exitY=1;exitDx=0;exitDy=0;" parent="1" source="HDh2wChi5G17j3avY4q5-4" edge="1">
          <mxGeometry relative="1" as="geometry">
            <mxPoint x="560" y="270" as="targetPoint" />
          </mxGeometry>
        </mxCell>
        <mxCell id="HDh2wChi5G17j3avY4q5-4" value="&lt;b&gt;client&lt;/b&gt;" style="text;html=1;strokeColor=none;fillColor=none;align=center;verticalAlign=middle;whiteSpace=wrap;rounded=0;" parent="1" vertex="1">
          <mxGeometry x="480" y="200" width="40" height="20" as="geometry" />
        </mxCell>
        <mxCell id="HDh2wChi5G17j3avY4q5-8" style="edgeStyle=orthogonalEdgeStyle;rounded=0;orthogonalLoop=1;jettySize=auto;html=1;exitX=0.5;exitY=1;exitDx=0;exitDy=0;entryX=0.5;entryY=0;entryDx=0;entryDy=0;" parent="1" source="HDh2wChi5G17j3avY4q5-5" target="HDh2wChi5G17j3avY4q5-2" edge="1">
          <mxGeometry relative="1" as="geometry" />
        </mxCell>
        <mxCell id="HDh2wChi5G17j3avY4q5-5" value="&lt;b&gt;client&lt;/b&gt;" style="text;html=1;strokeColor=none;fillColor=none;align=center;verticalAlign=middle;whiteSpace=wrap;rounded=0;" parent="1" vertex="1">
          <mxGeometry x="540" y="200" width="40" height="20" as="geometry" />
        </mxCell>
        <mxCell id="HDh2wChi5G17j3avY4q5-10" style="edgeStyle=none;rounded=0;orthogonalLoop=1;jettySize=auto;html=1;exitX=0.5;exitY=1;exitDx=0;exitDy=0;entryX=0.5;entryY=0;entryDx=0;entryDy=0;" parent="1" source="HDh2wChi5G17j3avY4q5-6" target="HDh2wChi5G17j3avY4q5-2" edge="1">
          <mxGeometry relative="1" as="geometry" />
        </mxCell>
        <mxCell id="HDh2wChi5G17j3avY4q5-6" value="&lt;b&gt;client&lt;/b&gt;" style="text;html=1;strokeColor=none;fillColor=none;align=center;verticalAlign=middle;whiteSpace=wrap;rounded=0;" parent="1" vertex="1">
          <mxGeometry x="600" y="200" width="40" height="20" as="geometry" />
        </mxCell>
        <mxCell id="HDh2wChi5G17j3avY4q5-42" style="edgeStyle=orthogonalEdgeStyle;rounded=0;orthogonalLoop=1;jettySize=auto;html=1;exitX=0.5;exitY=1;exitDx=0;exitDy=0;entryX=0.5;entryY=0;entryDx=0;entryDy=0;curved=1;" parent="1" source="HDh2wChi5G17j3avY4q5-12" target="HDh2wChi5G17j3avY4q5-32" edge="1">
          <mxGeometry relative="1" as="geometry" />
        </mxCell>
        <mxCell id="HDh2wChi5G17j3avY4q5-59" value="eventDispatch" style="text;html=1;align=center;verticalAlign=middle;resizable=0;points=[];labelBackgroundColor=#ffffff;" parent="HDh2wChi5G17j3avY4q5-42" vertex="1" connectable="0">
          <mxGeometry x="0.1673" y="4" relative="1" as="geometry">
            <mxPoint as="offset" />
          </mxGeometry>
        </mxCell>
        <mxCell id="HDh2wChi5G17j3avY4q5-12" value="s.handlePackage(Loop)" style="ellipse;whiteSpace=wrap;html=1;" parent="1" vertex="1">
          <mxGeometry x="380" y="410" width="140" height="80" as="geometry" />
        </mxCell>
        <mxCell id="HDh2wChi5G17j3avY4q5-74" style="edgeStyle=orthogonalEdgeStyle;rounded=0;orthogonalLoop=1;jettySize=auto;html=1;exitX=0.5;exitY=1;exitDx=0;exitDy=0;startArrow=none;startFill=0;endArrow=classic;endFill=1;" parent="1" source="SpMPoGOiHPCBRJuCGG7Y-1" edge="1">
          <mxGeometry relative="1" as="geometry">
            <mxPoint x="460" y="590" as="targetPoint" />
            <Array as="points">
              <mxPoint x="700" y="590" />
            </Array>
          </mxGeometry>
        </mxCell>
        <mxCell id="HDh2wChi5G17j3avY4q5-13" value="s.handlerLoop" style="ellipse;whiteSpace=wrap;html=1;" parent="1" vertex="1">
          <mxGeometry x="590" y="410" width="130" height="80" as="geometry" />
        </mxCell>
        <mxCell id="HDh2wChi5G17j3avY4q5-16" value="&lt;b&gt;Run&lt;/b&gt;" style="text;html=1;strokeColor=none;fillColor=none;align=center;verticalAlign=middle;whiteSpace=wrap;rounded=0;" parent="1" vertex="1">
          <mxGeometry x="540" y="360" width="40" height="20" as="geometry" />
        </mxCell>
        <mxCell id="HDh2wChi5G17j3avY4q5-51" style="edgeStyle=orthogonalEdgeStyle;rounded=0;orthogonalLoop=1;jettySize=auto;html=1;exitX=0;exitY=1;exitDx=0;exitDy=0;entryX=1;entryY=0.5;entryDx=0;entryDy=0;curved=1;" parent="1" source="HDh2wChi5G17j3avY4q5-21" target="HDh2wChi5G17j3avY4q5-13" edge="1">
          <mxGeometry relative="1" as="geometry" />
        </mxCell>
        <mxCell id="HDh2wChi5G17j3avY4q5-52" value="otPkg &amp;lt;- s.wQ" style="text;html=1;align=center;verticalAlign=middle;resizable=0;points=[];labelBackgroundColor=#ffffff;" parent="HDh2wChi5G17j3avY4q5-51" vertex="1" connectable="0">
          <mxGeometry x="-0.2067" y="23" relative="1" as="geometry">
            <mxPoint x="-23" y="22" as="offset" />
          </mxGeometry>
        </mxCell>
        <mxCell id="HDh2wChi5G17j3avY4q5-21" value="Queue" style="ellipse;whiteSpace=wrap;html=1;aspect=fixed;" parent="1" vertex="1">
          <mxGeometry x="850" y="330" width="80" height="80" as="geometry" />
        </mxCell>
        <mxCell id="HDh2wChi5G17j3avY4q5-29" style="edgeStyle=orthogonalEdgeStyle;rounded=0;orthogonalLoop=1;jettySize=auto;html=1;exitX=1;exitY=0.5;exitDx=0;exitDy=0;entryX=0;entryY=0.5;entryDx=0;entryDy=0;dashed=1;endArrow=none;endFill=0;" parent="1" source="HDh2wChi5G17j3avY4q5-25" target="HDh2wChi5G17j3avY4q5-21" edge="1">
          <mxGeometry relative="1" as="geometry" />
        </mxCell>
        <mxCell id="HDh2wChi5G17j3avY4q5-30" value="initial" style="text;html=1;align=center;verticalAlign=middle;resizable=0;points=[];labelBackgroundColor=#ffffff;" parent="HDh2wChi5G17j3avY4q5-29" vertex="1" connectable="0">
          <mxGeometry x="-0.3206" y="2" relative="1" as="geometry">
            <mxPoint as="offset" />
          </mxGeometry>
        </mxCell>
        <mxCell id="HDh2wChi5G17j3avY4q5-39" style="edgeStyle=orthogonalEdgeStyle;rounded=0;orthogonalLoop=1;jettySize=auto;html=1;exitX=0.5;exitY=1;exitDx=0;exitDy=0;dashed=1;curved=1;endArrow=none;endFill=0;" parent="1" source="HDh2wChi5G17j3avY4q5-25" target="HDh2wChi5G17j3avY4q5-38" edge="1">
          <mxGeometry relative="1" as="geometry" />
        </mxCell>
        <mxCell id="HDh2wChi5G17j3avY4q5-40" style="edgeStyle=entityRelationEdgeStyle;rounded=0;orthogonalLoop=1;jettySize=auto;html=1;exitX=0.5;exitY=1;exitDx=0;exitDy=0;entryX=0;entryY=0.5;entryDx=0;entryDy=0;dashed=1;endArrow=none;endFill=0;" parent="1" source="HDh2wChi5G17j3avY4q5-25" target="HDh2wChi5G17j3avY4q5-32" edge="1">
          <mxGeometry relative="1" as="geometry" />
        </mxCell>
        <mxCell id="HDh2wChi5G17j3avY4q5-41" style="edgeStyle=orthogonalEdgeStyle;rounded=0;orthogonalLoop=1;jettySize=auto;html=1;exitX=1;exitY=0.75;exitDx=0;exitDy=0;entryX=0;entryY=0.5;entryDx=0;entryDy=0;dashed=1;curved=1;endArrow=none;endFill=0;" parent="1" source="HDh2wChi5G17j3avY4q5-25" target="HDh2wChi5G17j3avY4q5-31" edge="1">
          <mxGeometry relative="1" as="geometry" />
        </mxCell>
        <mxCell id="HDh2wChi5G17j3avY4q5-72" style="edgeStyle=orthogonalEdgeStyle;rounded=0;orthogonalLoop=1;jettySize=auto;html=1;exitX=0;exitY=0.75;exitDx=0;exitDy=0;entryX=0;entryY=0.5;entryDx=0;entryDy=0;dashed=1;endArrow=none;endFill=0;" parent="1" source="HDh2wChi5G17j3avY4q5-25" target="HDh2wChi5G17j3avY4q5-65" edge="1">
          <mxGeometry relative="1" as="geometry">
            <Array as="points">
              <mxPoint x="62" y="590" />
            </Array>
          </mxGeometry>
        </mxCell>
        <mxCell id="HDh2wChi5G17j3avY4q5-25" value="Session" style="shape=hexagon;perimeter=hexagonPerimeter2;whiteSpace=wrap;html=1;" parent="1" vertex="1">
          <mxGeometry x="50" y="330" width="120" height="80" as="geometry" />
        </mxCell>
        <mxCell id="HDh2wChi5G17j3avY4q5-27" value="&lt;b&gt;New&lt;/b&gt;" style="text;html=1;align=center;verticalAlign=middle;resizable=0;points=[];autosize=1;" parent="1" vertex="1">
          <mxGeometry x="283" y="300" width="40" height="20" as="geometry" />
        </mxCell>
        <mxCell id="HDh2wChi5G17j3avY4q5-48" style="edgeStyle=orthogonalEdgeStyle;rounded=0;orthogonalLoop=1;jettySize=auto;html=1;exitX=1;exitY=0.5;exitDx=0;exitDy=0;entryX=0.5;entryY=1;entryDx=0;entryDy=0;dashed=1;" parent="1" source="HDh2wChi5G17j3avY4q5-31" target="HDh2wChi5G17j3avY4q5-46" edge="1">
          <mxGeometry relative="1" as="geometry" />
        </mxCell>
        <mxCell id="HDh2wChi5G17j3avY4q5-49" style="edgeStyle=orthogonalEdgeStyle;rounded=0;orthogonalLoop=1;jettySize=auto;html=1;exitX=1;exitY=0.5;exitDx=0;exitDy=0;entryX=0.5;entryY=1;entryDx=0;entryDy=0;dashed=1;" parent="1" source="HDh2wChi5G17j3avY4q5-31" target="HDh2wChi5G17j3avY4q5-47" edge="1">
          <mxGeometry relative="1" as="geometry" />
        </mxCell>
        <mxCell id="HDh2wChi5G17j3avY4q5-31" value="Codec" style="rounded=1;whiteSpace=wrap;html=1;" parent="1" vertex="1">
          <mxGeometry x="216.5" y="500" width="60" height="40" as="geometry" />
        </mxCell>
        <mxCell id="HDh2wChi5G17j3avY4q5-43" style="edgeStyle=orthogonalEdgeStyle;rounded=0;orthogonalLoop=1;jettySize=auto;html=1;exitX=1;exitY=0.5;exitDx=0;exitDy=0;entryX=0.5;entryY=1;entryDx=0;entryDy=0;elbow=vertical;" parent="1" source="HDh2wChi5G17j3avY4q5-32" target="HDh2wChi5G17j3avY4q5-21" edge="1">
          <mxGeometry relative="1" as="geometry" />
        </mxCell>
        <mxCell id="HDh2wChi5G17j3avY4q5-53" value="s.wQ &amp;lt;- Pkg" style="text;html=1;align=center;verticalAlign=middle;resizable=0;points=[];labelBackgroundColor=#ffffff;" parent="HDh2wChi5G17j3avY4q5-43" vertex="1" connectable="0">
          <mxGeometry x="0.0058" y="1" relative="1" as="geometry">
            <mxPoint as="offset" />
          </mxGeometry>
        </mxCell>
        <mxCell id="HDh2wChi5G17j3avY4q5-32" value="" style="rounded=0;whiteSpace=wrap;html=1;" parent="1" vertex="1">
          <mxGeometry x="170" y="630" width="250" height="100" as="geometry" />
        </mxCell>
        <mxCell id="HDh2wChi5G17j3avY4q5-33" value="Task" style="rounded=1;whiteSpace=wrap;html=1;" parent="1" vertex="1">
          <mxGeometry x="180" y="660" width="70" height="50" as="geometry" />
        </mxCell>
        <mxCell id="HDh2wChi5G17j3avY4q5-35" value="Task" style="rounded=1;whiteSpace=wrap;html=1;" parent="1" vertex="1">
          <mxGeometry x="260" y="660" width="70" height="50" as="geometry" />
        </mxCell>
        <mxCell id="HDh2wChi5G17j3avY4q5-36" value="Task" style="rounded=1;whiteSpace=wrap;html=1;" parent="1" vertex="1">
          <mxGeometry x="340" y="660" width="70" height="50" as="geometry" />
        </mxCell>
        <mxCell id="HDh2wChi5G17j3avY4q5-37" value="TaskPool" style="text;html=1;strokeColor=none;fillColor=none;align=center;verticalAlign=middle;whiteSpace=wrap;rounded=0;" parent="1" vertex="1">
          <mxGeometry x="180" y="630" width="40" height="20" as="geometry" />
        </mxCell>
        <mxCell id="HDh2wChi5G17j3avY4q5-55" style="edgeStyle=orthogonalEdgeStyle;curved=1;rounded=0;orthogonalLoop=1;jettySize=auto;html=1;exitX=1;exitY=0.5;exitDx=0;exitDy=0;entryX=0;entryY=0.5;entryDx=0;entryDy=0;dashed=1;" parent="1" source="HDh2wChi5G17j3avY4q5-38" target="HDh2wChi5G17j3avY4q5-54" edge="1">
          <mxGeometry relative="1" as="geometry" />
        </mxCell>
        <mxCell id="HDh2wChi5G17j3avY4q5-38" value="Handler" style="rounded=1;whiteSpace=wrap;html=1;" parent="1" vertex="1">
          <mxGeometry x="70" y="750" width="80" height="40" as="geometry" />
        </mxCell>
        <mxCell id="HDh2wChi5G17j3avY4q5-44" value="Write/Read gr" style="text;html=1;strokeColor=none;fillColor=none;align=center;verticalAlign=middle;whiteSpace=wrap;rounded=0;" parent="1" vertex="1">
          <mxGeometry x="520" y="390" width="80" height="20" as="geometry" />
        </mxCell>
        <mxCell id="HDh2wChi5G17j3avY4q5-46" value="decode" style="rounded=0;whiteSpace=wrap;html=1;" parent="1" vertex="1">
          <mxGeometry x="370" y="470" width="40" height="30" as="geometry" />
        </mxCell>
        <mxCell id="HDh2wChi5G17j3avY4q5-47" value="encode" style="rounded=0;whiteSpace=wrap;html=1;" parent="1" vertex="1">
          <mxGeometry x="590" y="470" width="40" height="30" as="geometry" />
        </mxCell>
        <mxCell id="HDh2wChi5G17j3avY4q5-56" style="rounded=0;orthogonalLoop=1;jettySize=auto;html=1;exitX=0.5;exitY=0;exitDx=0;exitDy=0;entryX=0.5;entryY=1;entryDx=0;entryDy=0;dashed=1;" parent="1" source="HDh2wChi5G17j3avY4q5-54" target="HDh2wChi5G17j3avY4q5-33" edge="1">
          <mxGeometry relative="1" as="geometry" />
        </mxCell>
        <mxCell id="HDh2wChi5G17j3avY4q5-60" value="invoke" style="text;html=1;align=center;verticalAlign=middle;resizable=0;points=[];labelBackgroundColor=#ffffff;" parent="HDh2wChi5G17j3avY4q5-56" vertex="1" connectable="0">
          <mxGeometry y="-2" relative="1" as="geometry">
            <mxPoint as="offset" />
          </mxGeometry>
        </mxCell>
        <mxCell id="HDh2wChi5G17j3avY4q5-57" style="edgeStyle=none;rounded=0;orthogonalLoop=1;jettySize=auto;html=1;exitX=0.5;exitY=0;exitDx=0;exitDy=0;dashed=1;" parent="1" source="HDh2wChi5G17j3avY4q5-54" target="HDh2wChi5G17j3avY4q5-35" edge="1">
          <mxGeometry relative="1" as="geometry" />
        </mxCell>
        <mxCell id="HDh2wChi5G17j3avY4q5-64" value="invoke" style="text;html=1;align=center;verticalAlign=middle;resizable=0;points=[];labelBackgroundColor=#ffffff;" parent="HDh2wChi5G17j3avY4q5-57" vertex="1" connectable="0">
          <mxGeometry x="-0.4" y="-2" relative="1" as="geometry">
            <mxPoint as="offset" />
          </mxGeometry>
        </mxCell>
        <mxCell id="HDh2wChi5G17j3avY4q5-58" style="edgeStyle=none;rounded=0;orthogonalLoop=1;jettySize=auto;html=1;exitX=0.5;exitY=0;exitDx=0;exitDy=0;entryX=0.5;entryY=1;entryDx=0;entryDy=0;dashed=1;" parent="1" source="HDh2wChi5G17j3avY4q5-54" target="HDh2wChi5G17j3avY4q5-36" edge="1">
          <mxGeometry relative="1" as="geometry" />
        </mxCell>
        <mxCell id="HDh2wChi5G17j3avY4q5-61" value="invoke" style="text;html=1;align=center;verticalAlign=middle;resizable=0;points=[];labelBackgroundColor=#ffffff;" parent="HDh2wChi5G17j3avY4q5-58" vertex="1" connectable="0">
          <mxGeometry x="0.05" y="2" relative="1" as="geometry">
            <mxPoint as="offset" />
          </mxGeometry>
        </mxCell>
        <mxCell id="HDh2wChi5G17j3avY4q5-54" value="OnMessage" style="rounded=0;whiteSpace=wrap;html=1;" parent="1" vertex="1">
          <mxGeometry x="216.5" y="750" width="157" height="40" as="geometry" />
        </mxCell>
        <mxCell id="HDh2wChi5G17j3avY4q5-70" style="edgeStyle=orthogonalEdgeStyle;rounded=0;orthogonalLoop=1;jettySize=auto;html=1;exitX=1;exitY=0.5;exitDx=0;exitDy=0;entryX=0.5;entryY=1;entryDx=0;entryDy=0;dashed=1;" parent="1" source="HDh2wChi5G17j3avY4q5-65" target="HDh2wChi5G17j3avY4q5-69" edge="1">
          <mxGeometry relative="1" as="geometry" />
        </mxCell>
        <mxCell id="HDh2wChi5G17j3avY4q5-65" value="Conn" style="rounded=1;whiteSpace=wrap;html=1;" parent="1" vertex="1">
          <mxGeometry x="216.5" y="570" width="60" height="40" as="geometry" />
        </mxCell>
        <mxCell id="HDh2wChi5G17j3avY4q5-69" value="recv" style="rounded=0;whiteSpace=wrap;html=1;" parent="1" vertex="1">
          <mxGeometry x="470" y="470" width="40" height="30" as="geometry" />
        </mxCell>
        <mxCell id="SpMPoGOiHPCBRJuCGG7Y-1" value="send" style="rounded=0;whiteSpace=wrap;html=1;" vertex="1" parent="1">
          <mxGeometry x="680" y="470" width="40" height="30" as="geometry" />
        </mxCell>
      </root>
    </mxGraphModel>
  </diagram>
</mxfile>
